<svg width="24" height="24" viewBox="0 0 24 24" fill="none" xmlns="http://www.w3.org/2000/svg">
<path d="M15.78 11.28C15.9207 11.4205 15.9998 11.6111 16 11.81V12.19C15.9977 12.3884 15.9189 12.5783 15.78 12.72L10.64 17.85C10.5935 17.8968 10.5382 17.934 10.4773 17.9594C10.4164 17.9848 10.351 17.9979 10.285 17.9979C10.219 17.9979 10.1537 17.9848 10.0927 17.9594C10.0318 17.934 9.97649 17.8968 9.93001 17.85L9.22001 17.14C9.17345 17.0944 9.13646 17.0399 9.1112 16.9798C9.08595 16.9197 9.07294 16.8552 9.07294 16.79C9.07294 16.7248 9.08595 16.6603 9.1112 16.6002C9.13646 16.5401 9.17345 16.4856 9.22001 16.44L13.67 12L9.22001 7.55997C9.17315 7.51349 9.13595 7.45819 9.11057 7.39726C9.08518 7.33633 9.07211 7.27098 9.07211 7.20497C9.07211 7.13897 9.08518 7.07362 9.11057 7.01269C9.13595 6.95176 9.17315 6.89646 9.22001 6.84997L9.93001 6.14997C9.97649 6.10311 10.0318 6.06591 10.0927 6.04053C10.1537 6.01514 10.219 6.00208 10.285 6.00208C10.351 6.00208 10.4164 6.01514 10.4773 6.04053C10.5382 6.06591 10.5935 6.10311 10.64 6.14997L15.78 11.28Z" fill="black"/>
</svg>
